<?xml version="1.0" standalone="no"?><!DOCTYPE svg PUBLIC "-//W3C//DTD SVG 1.1//EN" "http://www.w3.org/Graphics/SVG/1.1/DTD/svg11.dtd"><svg t="1520999146887" class="icon" style="" viewBox="0 0 1024 1024" version="1.1" xmlns="http://www.w3.org/2000/svg" p-id="15538" xmlns:xlink="http://www.w3.org/1999/xlink" width="200" height="200"><defs><style type="text/css"></style></defs><path d="M512.00512 224.18432c-158.96576 0-287.81056 128.86016-287.81056 287.81568 0 158.9504 128.8448 287.80032 287.81056 287.80032 158.9504 0 287.81056-128.84992 287.81056-287.80032 0.00512-158.95552-128.85504-287.81568-287.81056-287.81568z m0 511.65696c-123.62752 0-223.85152-100.21888-223.85152-223.84128 0-123.63776 100.224-223.85664 223.85152-223.85664 123.63264 0 223.83104 100.21888 223.83104 223.85664 0.00512 123.6224-100.1984 223.84128-223.83104 223.84128z"  p-id="15539" ></path><path d="M512.00512 384.08704c70.64064 0 127.91296 57.27232 127.91296 127.91296s-57.27232 127.90784-127.91296 127.90784S384.09728 582.63552 384.09728 512s57.27232-127.91296 127.90784-127.91296z"  p-id="15540"></path></svg>