<?xml version="1.0" standalone="no"?><!DOCTYPE svg PUBLIC "-//W3C//DTD SVG 1.1//EN" "http://www.w3.org/Graphics/SVG/1.1/DTD/svg11.dtd"><svg t="1520498263691" class="icon" style="" viewBox="0 0 1024 1024" version="1.1" xmlns="http://www.w3.org/2000/svg" p-id="4096" xmlns:xlink="http://www.w3.org/1999/xlink" width="200" height="200"><defs><style type="text/css"></style></defs><path d="M708.486 504.839c-12.986-1.214-24.758-8.374-16.142-23.18s24.515-57.89-6.068-88.231c-30.583-30.462-97.454-18.932-144.786 0.729-47.21 19.661-44.661 5.947-43.205-7.524 1.578-14.199 27.065-93.571-50.851-103.158-102.066-12.5-233.017 113.838-279.257 186.656-69.905 109.955-58.861 184.351-58.861 184.351h0.485c8.374 102.673 159.593 184.471 344.914 184.471 159.349 0 293.578-60.56 333.263-142.845 0 0 0.122-0.364 0.485-0.971 4.127-8.86 7.282-17.84 9.223-27.185 5.583-22.087 9.83-54.128-0.607-85.682-18.569-55.827-75.609-76.217-88.595-77.429zM431.779 794.047c-131.922 0-238.964-70.876-238.964-158.257s106.921-158.257 238.964-158.257c131.922 0 238.964 70.876 238.964 158.257 0 87.503-107.042 158.257-238.964 158.257zM756.668 443.309c2.427 1.092 4.976 1.578 7.524 1.578 7.524 0 14.806-4.491 17.84-11.893 4.976-11.773 7.524-24.272 7.524-37.259 0-52.671-42.841-95.513-95.513-95.513-12.865 0-25.364 2.548-37.137 7.524-9.83 4.127-14.442 15.534-10.316 25.486 4.127 9.83 15.534 14.442 25.486 10.316 7.039-2.913 14.442-4.491 22.087-4.491 31.312 0 56.676 25.486 56.676 56.676 0 7.646-1.456 15.050-4.491 22.087-4.247 9.952 0.364 21.36 10.316 25.486z" fill="" p-id="4097"></path><path d="M692.953 181.043c-21.724 0-43.205 3.155-63.837 9.223-15.413 4.611-24.151 20.753-19.661 36.166 4.611 15.413 20.753 24.151 36.166 19.661 15.292-4.491 31.19-6.796 47.331-6.796 91.387 0 165.782 74.396 165.782 165.782 0 16.384-2.427 32.646-7.039 48.181-4.611 15.413 4.005 31.676 19.419 36.287 2.791 0.85 5.703 1.214 8.496 1.214 12.5 0 24.030-8.131 27.914-20.631 6.311-20.995 9.588-42.841 9.588-65.051-0.122-123.548-100.61-224.036-224.157-224.036zM409.691 535.301c-70.39 0-127.431 49.881-127.431 111.533s57.040 111.533 127.431 111.533 127.431-49.881 127.431-111.533-57.040-111.533-127.431-111.533zM368.063 719.289c-24.637 0-44.661-20.025-44.661-44.661s20.025-44.661 44.661-44.661c24.637 0 44.661 20.025 44.661 44.661 0 24.637-20.025 44.661-44.661 44.661zM451.562 638.825c-5.34 9.345-16.142 13.229-24.030 8.617-7.888-4.491-9.83-15.777-4.491-25.122 5.34-9.345 16.142-13.229 24.030-8.617 7.888 4.611 9.83 15.899 4.491 25.122z" fill="" p-id="4098"></path></svg>